<svg xmlns="http://www.w3.org/2000/svg" width="1200" height="630" viewBox="0 0 1200 630" role="img" aria-label="Nuage Events">
  <defs>
    <linearGradient id="bg" x1="0" y1="0" x2="1" y2="1">
      <stop offset="0" stop-color="#ffffff"/>
      <stop offset="1" stop-color="#f8fafc"/>
    </linearGradient>
    <linearGradient id="mark" x1="0" y1="0" x2="1" y2="1">
      <stop offset="0" stop-color="#0ea5e9"/>
      <stop offset="1" stop-color="#111827"/>
    </linearGradient>
  </defs>
  <rect width="1200" height="630" fill="url(#bg)"/>
  <g opacity="0.10" transform="translate(292,315)">
    <rect x="-204" y="-235" width="1040" height="470" rx="28" fill="none" stroke="#0f172a" stroke-width="2"/>
  </g>
  <g>
    <rect x="88" y="241" width="148" height="148" rx="33" fill="url(#mark)"/>
    <g transform="translate(125 278) scale(2.3125)">
      <circle cx="26" cy="37" r="13" fill="none" stroke="rgb(255, 255, 255)" stroke-width="4"/><circle cx="41" cy="40" r="9" fill="none" stroke="rgb(255, 255, 255)" stroke-width="4"/><line x1="16" y1="50" x2="48" y2="50" stroke="rgb(255, 255, 255)" stroke-width="3.5" stroke-linecap="round"/><polygon points="45,8 48,19 59,22 48,25 45,36 42,25 31,22 42,19" fill="rgb(255, 255, 255)"/><polygon points="16,12 18,17 23,19 18,21 16,26 14,21 9,19 14,17" fill="rgb(255, 255, 255)"/>
    </g>
    
  </g>
  <text x="292" y="290" font-family="Inter, Inter, system-ui, sans-serif"
        font-size="72" font-weight="800" fill="#0f172a">Nuage Events</text>
  <rect x="292" y="308" width="92" height="5" rx="2.5" fill="#0284c7"/>
  <text x="292" y="352" font-family="Inter, Inter, system-ui, sans-serif"
        font-size="30" fill="#64748b">Unforgettable is the minimum.</text>
</svg>
